<svg width="300" height="300" viewBox="0 0 300 300" fill="none" xmlns="http://www.w3.org/2000/svg">
<path d="M122.374 20.0714C138.847 8.10314 161.153 8.10313 177.626 20.0714L265.033 83.576C281.505 95.5443 288.398 116.759 282.106 136.124L248.72 238.876C242.428 258.241 224.382 271.353 204.02 271.353H95.9797C75.6181 271.353 57.5721 258.241 51.2801 238.876L17.8937 136.124C11.6016 116.759 18.4945 95.5443 34.9674 83.576L122.374 20.0714Z" fill="#111111"/>
<path d="M80.3008 185V114.541H110.916C128.25 114.541 137.576 123.232 137.576 137.783V137.881C137.576 146.475 133.23 154.336 125.613 157.705L139.676 185H119.559L107.498 160.342H98.2207V185H80.3008ZM98.2207 148.086H108.914C115.359 148.086 119.314 144.229 119.314 138.125V138.027C119.314 132.07 115.262 128.066 108.816 128.066H98.2207V148.086ZM163.883 185V114.541H178.189L207.584 154.189H208.463V114.541H225.455V185H211.246L181.754 144.961H180.875V185H163.883Z" fill="white"/>
</svg>
